<svg width="6" height="9" viewBox="0 0 6 9" fill="none" xmlns="http://www.w3.org/2000/svg">
<path fill-rule="evenodd" clip-rule="evenodd" d="M0.19478 4.91653C0.0697986 4.79151 -0.000411882 4.62197 -0.000411898 4.44519C-0.000411913 4.26842 0.0697985 4.09888 0.194779 3.97386L3.96611 0.202524C4.02761 0.138851 4.10117 0.0880624 4.18251 0.0531236C4.26384 0.0181838 4.35132 -0.000206881 4.43984 -0.00097555C4.52836 -0.00174517 4.61615 0.0151225 4.69808 0.0486431C4.78001 0.0821638 4.85445 0.131666 4.91704 0.194262C4.97964 0.256857 5.02914 0.33129 5.06266 0.413221C5.09618 0.495152 5.11305 0.582939 5.11228 0.671459C5.11151 0.759978 5.09312 0.847459 5.05818 0.928794C5.02324 1.01013 4.97245 1.08369 4.90878 1.14519L1.60878 4.44519L4.90878 7.74519C5.03022 7.87093 5.09741 8.03933 5.0959 8.21413C5.09438 8.38892 5.02426 8.55613 4.90066 8.67974C4.77705 8.80334 4.60984 8.87346 4.43505 8.87497C4.26025 8.87649 4.09185 8.8093 3.96611 8.68786L0.19478 4.91653Z" fill="#737373"/>
</svg>
